Coordinates
version=1
nRows=12
nColumns=34
inDegrees=yes

Units are S.I. units (second, meters, Newtons, ...)
If the header above contains a line with 'inDegrees', this indicates whether rotational values are in degrees (yes) or radians (no).

endheader
time	pelvis_tilt	pelvis_list	pelvis_rotation	pelvis_tx	pelvis_ty	pelvis_tz	hip_flexion_r	hip_adduction_r	hip_rotation_r	knee_angle_r	ankle_angle_r	subtalar_angle_r	mtp_angle_r	hip_flexion_l	hip_adduction_l	hip_rotation_l	knee_angle_l	ankle_angle_l	subtalar_angle_l	mtp_angle_l	lumbar_extension	lumbar_bending	lumbar_rotation	arm_flex_r	arm_add_r	arm_rot_r	elbow_flex_r	pro_sup_r	arm_flex_l	arm_add_l	arm_rot_l	elbow_flex_l	pro_sup_l
      5.23333330	    -13.41500154	      2.33534962	   -190.26656556	     -5.35263910	      0.97747662	     -0.84895954	     -8.37062959	      2.50500370	      0.51496909	     33.93513841	     12.36275764	    -12.44570121	      0.00000000	     28.92897922	      2.00170714	     -5.11840131	     74.67034513	     -6.34285019	    -33.97638268	      0.00000000	    -34.92769911	      1.33086174	     10.77746188	     25.40546951	    -19.65275465	    -15.13076430	     87.74984817	    102.05027825	      0.37989469	     -5.10326837	    -10.81241516	     85.33094908	     99.05241956
      5.25000000	    -13.39646714	      1.49744497	   -189.94807459	     -5.41033418	      0.99070567	     -0.85940295	    -11.59565264	      1.42844884	     -0.85056769	     34.41236876	      6.05324391	    -12.80007520	      0.00000000	     26.95585764	      4.13713634	     -3.35892651	     59.31889661	     -5.54749178	    -32.70078500	      0.00000000	    -33.64167819	      0.35830883	     12.16364360	     27.13266614	    -18.54694717	    -10.74201597	     90.66578608	    101.77266924	     -3.17577860	     -3.41987187	    -12.54908823	     87.33081409	     98.50927929
      5.26666670	    -13.73600266	      1.31144199	   -190.10981018	     -5.47122129	      1.00642781	     -0.87143142	    -15.48149762	      0.88202485	     -1.70552892	     34.22373088	     -2.60735183	    -12.94116953	      0.00000000	     22.50665325	      5.30618176	     -1.41166484	     40.83648470	     -6.79211665	    -27.40566385	      0.00000000	    -32.44484029	     -0.00151026	     13.20185884	     24.94452941	    -17.62207819	     -5.09997297	     96.22243714	    102.09315901	     -7.41218814	     -2.04093713	    -14.35012127	     88.35411382	     98.24855031
      5.28333330	    -14.16974744	      3.23825568	   -190.78667122	     -5.53448867	      1.01733177	     -0.88464666	    -19.58935751	      2.52888997	     -0.87113955	     33.77652658	    -10.43072489	    -13.21789142	      0.00000000	     17.16267808	      3.38295749	     -1.02399350	     22.86584043	     -9.99307331	    -17.50432396	      0.00000000	    -31.32586305	      1.65114634	     15.20108440	     21.20008601	    -17.91880358	      0.84408303	    103.16157890	    102.86631980	    -12.49287615	     -0.36907196	    -16.50069823	     89.36828400	     98.14496024
      5.30000000	    -14.18599210	      6.71799705	   -191.65704117	     -5.59794629	      1.02221201	     -0.89720253	    -22.75927157	      5.59843108	      1.04001897	     34.62511095	    -14.86555705	    -13.98421667	      0.00000000	     13.89505965	     -0.56314918	     -3.51633605	     11.08071107	    -12.90108969	     -6.53855591	      0.00000000	    -29.97231133	      5.12393975	     17.79909068	     17.41239510	    -19.08665101	      5.54426918	    109.38599942	    103.72112811	    -17.57705215	      1.39979859	    -19.01914567	     90.06289430	     98.16866242
      5.31666670	    -14.31028527	      9.63938700	   -192.57086525	     -5.65779975	      1.02204834	     -0.90833618	    -24.60395961	      7.61536411	      2.40017688	     37.81651832	    -17.12616373	    -15.48932161	      0.00000000	     12.19686665	     -3.70831577	     -6.37402589	      5.13575228	    -15.18665961	      0.67351865	      0.00000000	    -29.29817953	      8.09446276	     19.71277083	     14.68863938	    -20.37829483	      8.63821618	    114.02540401	    104.45310629	    -21.40106984	      2.79856866	    -21.80581733	     90.78438887	     98.26574037
      5.33333330	    -15.08275196	     11.49872214	   -192.97696245	     -5.71296702	      1.01369491	     -0.91816230	    -25.37806078	      8.40790982	      2.47703920	     43.31017056	    -17.80712111	    -19.17763342	      0.00000000	     10.77197460	     -5.51173434	     -7.78678588	      2.73833232	    -16.11261551	      3.98409159	      0.00000000	    -29.79480226	      9.91453673	     20.46791170	     12.93315078	    -21.39367773	     11.26453496	    118.32887770	    105.25707990	    -23.57581334	      3.38445653	    -24.74236283	     91.98996973	     98.51624453
      5.35000000	    -16.17715967	     12.24151144	   -192.73918133	     -5.76530366	      1.00256965	     -0.92685662	    -24.66781695	      8.29081199	      1.39682643	     50.87194413	    -18.26111978	    -24.94950213	      0.00000000	      9.51692619	     -5.97265615	     -7.33681232	      2.01393696	    -16.00813470	      4.37428163	      0.00000000	    -30.93301826	     10.59752461	     20.16472017	     11.97768735	    -22.42566166	     14.04809966	    122.72876378	    106.21561433	    -24.10936048	      3.15835669	    -27.29956336	     94.17702519	     98.94803558
      5.36666670	    -17.22642669	     12.02194559	   -192.27838998	     -5.81795471	      0.99381839	     -0.93528167	    -22.50715338	      7.22449793	     -0.37725240	     60.15825999	    -19.01742193	    -31.13384477	      0.00000000	      8.20493467	     -5.39271147	     -5.22411504	      2.38020587	    -14.55225343	      2.89891784	      0.00000000	    -31.92451920	     10.25922763	     19.20541614	     11.33277138	    -23.00701364	     16.66999392	    126.84642259	    107.04284986	    -23.77442741	      1.92441994	    -28.90157655	     97.02524062	     99.34176644
      5.38333330	    -18.40023027	     11.51739698	   -191.77469206	     -5.87170514	      0.98622572	     -0.94354375	    -19.92309012	      5.61146485	     -2.22449577	     69.64293841	    -20.41986983	    -35.00000000	      0.00000000	      6.49901099	     -4.47227303	     -2.50264516	      3.99836565	    -12.32588422	      0.14547635	      0.00000000	    -32.88333261	      9.56904981	     18.00179355	     10.49587663	    -23.02613612	     18.49445812	    129.80004800	    107.82862725	    -23.25475282	      0.25896234	    -29.93578114	     99.97389519	     99.70175482
      5.40000000	    -19.60350173	     10.90845807	   -191.38870664	     -5.92618597	      0.97778930	     -0.95134751	    -17.25856661	      3.56398937	     -3.74123270	     78.42165649	    -19.57201198	    -35.00000000	      0.00000000	      4.74619274	     -3.33846594	      0.40460037	      6.92757509	    -10.06503397	     -3.95486911	      0.00000000	    -33.77424659	      8.73954724	     16.78519202	      8.75224038	    -22.43489005	     19.50703539	    132.09358062	    108.59103461	    -23.05649258	     -1.26980480	    -30.91000187	    102.32662843	     99.97870993
      5.41666670	    -21.12106948	     10.06527947	   -191.28134523	     -5.97923928	      0.96906581	     -0.95864210	    -14.70170945	      0.97050684	     -4.58982087	     86.01595568	    -18.44815865	    -35.00000000	      0.00000000	      3.08910138	     -1.63557772	      3.02720644	     11.71967336	     -8.52588599	     -9.98236469	      0.00000000	    -34.97506188	      7.53572799	     15.65290598	      6.08863481	    -21.22378596	     20.43744808	    134.14882348	    109.46107451	    -22.38381441	     -2.60130890	    -30.92633746	    104.09036134	    100.19832178
